<svg xmlns="http://www.w3.org/2000/svg" width="30" height="27" viewBox="265 3797 30 27"><path d="m283.37 3823.105-1.108-2.385c-.37-.797-.028-1.75.763-2.105 1.72-.774 3.006-1.756 3.856-2.942 1.076-1.503 1.646-3.502 1.704-5.999h-4.477c-.85 0-1.539-.702-1.539-1.568v-9.538c0-.866.69-1.568 1.539-1.568h9.354c.849 0 1.538.702 1.538 1.568v7.498c0 3.67-.317 6.563-.951 8.684-.633 2.121-1.805 4.022-3.517 5.707-1.403 1.38-3.123 2.515-5.16 3.413a1.52 1.52 0 0 1-2.002-.765Zm-17.116-.007-1.105-2.378c-.37-.797-.028-1.75.763-2.105 1.72-.774 3.006-1.756 3.855-2.942 1.077-1.503 1.646-3.502 1.705-5.999h-4.477c-.849 0-1.538-.702-1.538-1.568v-9.538c0-.866.69-1.568 1.538-1.568h9.353c.85 0 1.539.702 1.539 1.568v7.498c0 3.7-.317 6.6-.951 8.706-.634 2.105-1.812 4-3.538 5.685-1.413 1.377-3.123 2.512-5.136 3.407-.2.09-.41.131-.615.131a1.54 1.54 0 0 1-1.393-.897Z" fill="#2c2c2c" fill-rule="evenodd" data-name="Forma 1"/></svg>